<?xml version="1.0" encoding="utf-8"?>
<!-- Generator: Adobe Illustrator 22.0.0, SVG Export Plug-In . SVG Version: 6.00 Build 0)  -->
<svg  fill="#00acec" version="1.1" id="Слой_1" xmlns="http://www.w3.org/2000/svg" xmlns:xlink="http://www.w3.org/1999/xlink" x="0px" y="0px"
	 viewBox="0 0 511 511" style="enable-background:new 0 0 511 511;" xml:space="preserve">
<path d="M146.9,396.4h115.9c5.5,0,10-4.5,10-10V270.5c0-5.5-4.5-10-10-10H146.9c-5.5,0-10,4.5-10,10v115.9
	C136.9,391.9,141.4,396.4,146.9,396.4z M157,280.5h95.8v95.8H157V280.5z"/>
<path d="M500,30.9H79.4c-5.5,0-10,4.5-10,10v57.6H9c-5.5,0-10,4.5-10,10v326.4c0,24.9,20.3,45.2,45.2,45.2h420.6
	c24.9,0,45.2-20.3,45.2-45.2V41C510,35.4,505.5,30.9,500,30.9z M69.4,165.8l0,20V219v20v37.9v20v37.9v20v37.9v20v22.1
	c0,13.9-11.3,25.2-25.2,25.2c-13.9,0-25.2-11.3-25.2-25.2V118.6h50.3V165.8z M490,434.9c0,13.9-11.3,25.2-25.2,25.2H81.7
	c5-7.4,7.7-16.2,7.7-25.2V51H490V434.9z"/>
<path d="M185.7,159.8h208.9c5.5,0,10-4.5,10-10V96.6c0-5.5-4.5-10-10-10H185.7c-5.5,0-10,4.5-10,10v53.1
	C175.7,155.3,180.1,159.8,185.7,159.8z M195.7,106.7h188.9v33.1H195.7V106.7z"/>
<line class="st0" x1="150" y1="218.5" x2="442" y2="218.5"/>
<line class="st0" x1="305" y1="280.5" x2="442" y2="280.5"/>
</svg>
