<?xml version="1.0" encoding="utf-8"?>
<!-- Generator: Adobe Illustrator 22.0.0, SVG Export Plug-In . SVG Version: 6.00 Build 0)  -->
<svg fill="#f078a4" version="1.1" id="Слой_1" xmlns="http://www.w3.org/2000/svg" xmlns:xlink="http://www.w3.org/1999/xlink" x="0px" y="0px"
	 viewBox="0 0 512 512" style="enable-background:new 0 0 512 512;" xml:space="preserve">
<path d="M256,146c-60.6,0-110,49.3-110,110c0,60.6,49.3,110,110,110c60.6,0,110-49.3,110-110C366,195.4,316.6,146,256,146z"/>
<path d="M373.4,0H138.6C62.2,0,0,62.2,0,138.6v234.8C0,449.8,62.2,512,138.6,512h234.8c76.4,0,138.6-62.2,138.6-138.6V138.6
	C512,62.2,449.8,0,373.4,0z M256,410.5c-85.2,0-154.5-69.3-154.5-154.5c0-85.2,69.3-154.5,154.5-154.5
	c85.2,0,154.5,69.3,154.5,154.5C410.5,341.2,341.2,410.5,256,410.5z M416.7,139.8c-24.6,0-44.6-20-44.6-44.6s20-44.6,44.6-44.6
	c24.6,0,44.7,20,44.7,44.6C461.3,119.8,441.3,139.8,416.7,139.8z"/>
</svg>
